<?xml version="1.0" standalone="no"?>
<!DOCTYPE svg PUBLIC "-//W3C//DTD SVG 20010904//EN"
 "http://www.w3.org/TR/2001/REC-SVG-20010904/DTD/svg10.dtd">
<svg version="1.0" xmlns="http://www.w3.org/2000/svg"
 width="256.000000pt" height="256.000000pt" viewBox="0 0 256.000000 256.000000"
 preserveAspectRatio="xMidYMid meet">
<metadata>
Created by potrace 1.14, written by Peter Selinger 2001-2017
</metadata>
<g transform="translate(0.000000,256.000000) scale(0.100000,-0.100000)"
fill="#000000" stroke="none">
<path d="M717 2353 c-38 -59 -66 -118 -71 -148 -7 -37 15 -86 49 -114 27 -21
28 -22 9 -35 -16 -13 -19 -28 -20 -117 l-1 -103 -94 -2 c-256 -4 -296 -13
-360 -75 -70 -69 -73 -84 -77 -356 -4 -268 2 -299 59 -329 16 -8 29 -20 30
-27 1 -6 2 -185 3 -397 2 -428 3 -431 69 -467 30 -16 97 -18 967 -18 870 1
937 2 967 18 67 36 67 38 69 476 1 344 3 396 17 405 8 6 25 18 36 26 12 8 26
32 32 52 12 48 11 453 -2 504 -24 91 -109 167 -204 180 -28 3 -110 7 -184 8
l-133 2 -2 102 c-1 81 -4 105 -18 118 -16 16 -15 19 17 48 50 45 53 88 11 169
-48 94 -66 117 -90 117 -24 0 -35 -14 -87 -117 -34 -67 -36 -75 -26 -110 11
-38 49 -83 69 -83 6 0 1 -11 -11 -24 -20 -21 -23 -35 -24 -122 l-2 -99 -177 0
-178 0 0 96 c0 80 -3 100 -20 121 l-19 25 23 13 c33 17 60 80 51 119 -9 42
-76 162 -97 175 -32 20 -56 -6 -113 -122 -34 -70 -28 -118 20 -161 31 -27 32
-30 17 -45 -13 -13 -18 -42 -22 -119 l-5 -102 -175 0 -175 0 -2 70 c0 39 -2
84 -2 101 -1 16 -10 40 -21 51 -19 21 -19 22 0 28 25 8 61 67 62 103 1 25 -37
107 -83 180 -21 34 -55 28 -82 -15z m588 -92 c3 -5 2 -12 -3 -15 -5 -3 -9 1
-9 9 0 17 3 19 12 6z m461 -3 c3 -4 -1 -5 -10 -4 -8 1 -18 5 -22 8 -3 4 1 5
10 4 8 -1 18 -5 22 -8z"/>
</g>
</svg>
